<?xml version="1.0" encoding="UTF-8" standalone="no"?>
<!DOCTYPE svg PUBLIC "-//W3C//DTD SVG 1.1//EN"
 "http://www.w3.org/Graphics/SVG/1.1/DTD/svg11.dtd">
<!-- Generated by graphviz version 2.47.3 (20210619.1520)
 -->
<!-- Title: dependencies Pages: 1 -->
<svg width="651pt" height="247pt"
 viewBox="0.00 0.00 651.00 246.80" xmlns="http://www.w3.org/2000/svg" xmlns:xlink="http://www.w3.org/1999/xlink">
<g id="graph0" class="graph" transform="scale(1 1) rotate(0) translate(4 242.8)">
<title>dependencies</title>
<polygon fill="white" stroke="transparent" points="-4,4 -4,-242.8 647,-242.8 647,4 -4,4"/>
<text text-anchor="middle" x="321.5" y="-8.2" font-family="sans-serif" font-size="14.00">dependencies</text>
<g id="clust1" class="cluster">
<title>cluster_AppModule</title>
<polygon fill="none" stroke="black" stroke-dasharray="1,5" points="8,-32.8 8,-230.8 635,-230.8 635,-32.8 8,-32.8"/>
</g>
<g id="clust8" class="cluster">
<title>cluster_AppModule_providers</title>
<polygon fill="none" stroke="black" points="447,-40.8 447,-92.8 627,-92.8 627,-40.8 447,-40.8"/>
</g>
<g id="clust2" class="cluster">
<title>cluster_AppModule_declarations</title>
<polygon fill="none" stroke="black" points="168,-40.8 168,-92.8 439,-92.8 439,-40.8 168,-40.8"/>
</g>
<g id="clust5" class="cluster">
<title>cluster_AppModule_imports</title>
<polygon fill="none" stroke="black" points="16,-40.8 16,-92.8 160,-92.8 160,-40.8 16,-40.8"/>
</g>
<g id="clust7" class="cluster">
<title>cluster_AppModule_bootstrap</title>
<polygon fill="none" stroke="black" points="248,-170.8 248,-222.8 372,-222.8 372,-170.8 248,-170.8"/>
</g>
<!-- AppComponent -->
<g id="node1" class="node">
<title>AppComponent</title>
<polygon fill="#ffffb3" stroke="black" points="430.94,-84.8 325.06,-84.8 325.06,-48.8 430.94,-48.8 430.94,-84.8"/>
<text text-anchor="middle" x="378" y="-62.6" font-family="Times,serif" font-size="14.00">AppComponent</text>
</g>
<!-- AppModule -->
<g id="node3" class="node">
<title>AppModule</title>
<polygon fill="#8dd3c7" stroke="black" points="351.66,-149.8 348.66,-153.8 327.66,-153.8 324.66,-149.8 268.34,-149.8 268.34,-113.8 351.66,-113.8 351.66,-149.8"/>
<text text-anchor="middle" x="310" y="-127.6" font-family="Times,serif" font-size="14.00">AppModule</text>
</g>
<!-- AppComponent&#45;&gt;AppModule -->
<g id="edge1" class="edge">
<title>AppComponent&#45;&gt;AppModule</title>
<path fill="none" stroke="black" d="M338.55,-84.91C338.55,-84.91 338.55,-103.79 338.55,-103.79"/>
<polygon fill="black" stroke="black" points="335.05,-103.79 338.55,-113.79 342.05,-103.79 335.05,-103.79"/>
</g>
<!-- PersonasComponent -->
<g id="node2" class="node">
<title>PersonasComponent</title>
<polygon fill="#ffffb3" stroke="black" points="307.59,-84.8 176.41,-84.8 176.41,-48.8 307.59,-48.8 307.59,-84.8"/>
<text text-anchor="middle" x="242" y="-62.6" font-family="Times,serif" font-size="14.00">PersonasComponent</text>
</g>
<!-- PersonasComponent&#45;&gt;AppModule -->
<g id="edge2" class="edge">
<title>PersonasComponent&#45;&gt;AppModule</title>
<path fill="none" stroke="black" d="M287.86,-84.91C287.86,-84.91 287.86,-103.79 287.86,-103.79"/>
<polygon fill="black" stroke="black" points="284.36,-103.79 287.86,-113.79 291.36,-103.79 284.36,-103.79"/>
</g>
<!-- AppComponent  -->
<g id="node5" class="node">
<title>AppComponent </title>
<polygon fill="#80b1d3" stroke="black" points="364.44,-214.8 255.56,-214.8 255.56,-178.8 364.44,-178.8 364.44,-214.8"/>
<text text-anchor="middle" x="310" y="-192.6" font-family="Times,serif" font-size="14.00">AppComponent </text>
</g>
<!-- AppModule&#45;&gt;AppComponent  -->
<g id="edge4" class="edge">
<title>AppModule&#45;&gt;AppComponent </title>
<path fill="none" stroke="black" stroke-dasharray="1,5" d="M310,-149.91C310,-149.91 310,-168.79 310,-168.79"/>
<polygon fill="black" stroke="black" points="306.5,-168.79 310,-178.79 313.5,-168.79 306.5,-168.79"/>
</g>
<!-- AppRoutingModule -->
<g id="node4" class="node">
<title>AppRoutingModule</title>
<polygon fill="#8dd3c7" stroke="black" points="152.27,-84.8 149.27,-88.8 128.27,-88.8 125.27,-84.8 23.73,-84.8 23.73,-48.8 152.27,-48.8 152.27,-84.8"/>
<text text-anchor="middle" x="88" y="-62.6" font-family="Times,serif" font-size="14.00">AppRoutingModule</text>
</g>
<!-- AppRoutingModule&#45;&gt;AppModule -->
<g id="edge3" class="edge">
<title>AppRoutingModule&#45;&gt;AppModule</title>
<path fill="none" stroke="black" d="M88,-84.91C88,-104.14 88,-131.8 88,-131.8 88,-131.8 258.24,-131.8 258.24,-131.8"/>
<polygon fill="black" stroke="black" points="258.24,-135.3 268.24,-131.8 258.24,-128.3 258.24,-135.3"/>
</g>
<!-- peticiones_service -->
<g id="node6" class="node">
<title>peticiones_service</title>
<ellipse fill="#fdb462" stroke="black" cx="537" cy="-66.8" rx="82.22" ry="18"/>
<text text-anchor="middle" x="537" y="-62.6" font-family="Times,serif" font-size="14.00">peticiones_service</text>
</g>
<!-- peticiones_service&#45;&gt;AppModule -->
<g id="edge5" class="edge">
<title>peticiones_service&#45;&gt;AppModule</title>
<path fill="none" stroke="black" d="M537,-84.91C537,-104.14 537,-131.8 537,-131.8 537,-131.8 361.9,-131.8 361.9,-131.8"/>
<polygon fill="black" stroke="black" points="361.9,-128.3 351.9,-131.8 361.9,-135.3 361.9,-128.3"/>
</g>
</g>
</svg>
